<?xml version="1.0" encoding="utf-8"?>
<!-- Generator: Adobe Illustrator 24.1.1, SVG Export Plug-In . SVG Version: 6.00 Build 0)  -->
<svg version="1.1" id="Layer_1" xmlns="http://www.w3.org/2000/svg" xmlns:xlink="http://www.w3.org/1999/xlink" x="0px" y="0px"
	 viewBox="0 0 87.9 87.8" style="enable-background:new 0 0 87.9 87.8;" xml:space="preserve">
<style type="text/css">
	.st0{fill:#FFFFFF;}
</style>
<g>
	<g transform="translate(0.000000,511.000000) scale(0.100000,-0.100000)">
		<path class="st0" d="M424.2,5107.8c-17.2-6-7.4,12.2-221.4-415.2C68,4422.9,1.1,4286.7,0.3,4280.9c-0.6-4.8-0.2-12.6,1-17.6
			c3.3-11.8,17.2-26.2,28.3-29.1c6.2-1.7,122.6-2.1,414.6-1.9l405.9,0.6l8.7,5.8c4.8,3.1,11.2,9.5,14.3,14.3
			c5,7.2,5.8,10.7,5.8,22.1l-0.2,13.6l-201.9,403.5c-215.4,430.5-204.2,409.6-222.4,415.8C445.9,5110.7,432.7,5110.7,424.2,5107.8z
			 M517.8,4815.8c42.2-84.7,76.5-154,75.9-154c-0.4,0-7.4,4.3-15.7,9.5c-31.6,20.7-69,35.1-105.4,41.3
			c-54.1,8.9-116.8-6.2-171.1-41.3c-8.3-5.2-15.3-9.5-15.7-9.5c-0.6,0,33.7,69.2,75.9,154c42.4,84.7,77.5,154,78.1,154
			C440.3,4969.8,475.5,4900.5,517.8,4815.8z M485.2,4620.7c32.4-10.5,67.2-32.7,102.9-65.7l15.3-14.1l-15.5-15.3
			c-45.1-44-96.3-71.1-139.7-74c-48.8-3.1-103.1,22.3-157.3,73.8l-15.5,14.7l13.4,12.4C363,4620.7,421.9,4641.2,485.2,4620.7z
			 M214.8,4478.9c48.6-52.9,119-96.1,180-109.9c20.3-4.5,69.4-4.5,89.7,0c59.7,13.6,118.2,48.6,172.8,103.1
			c11.2,11.2,20.7,20.3,21.1,20.3c0.6,0,20.5-39.1,44.4-86.8l43.4-86.8H439.6H113.1l43.4,86.8c24,47.7,44,86.8,44.6,86.8
			C202,4492.4,208,4486.4,214.8,4478.9z"/>
		<path class="st0" d="M423.4,4602.7c-14.5-3.9-22.9-9.3-33.1-20.7c-14.9-16.9-19.2-41.5-11.6-64.9c5.2-15.7,22.5-33.1,38.2-38.2
			c25.6-8.5,50-3.1,68.4,15.3c26,26,26,65.3,0,91.3C468.4,4602.5,445.3,4608.9,423.4,4602.7z"/>
	</g>
</g>
</svg>
