<?xml version="1.0" encoding="utf-8"?>
<!-- Generator: Adobe Illustrator 24.1.1, SVG Export Plug-In . SVG Version: 6.00 Build 0)  -->
<svg version="1.1" id="Layer_1" xmlns="http://www.w3.org/2000/svg" xmlns:xlink="http://www.w3.org/1999/xlink" x="0px" y="0px"
	 viewBox="0 0 99.8 84.7" style="enable-background:new 0 0 99.8 84.7;" xml:space="preserve">
<style type="text/css">
	.st0{fill:#FFFFFF;}
</style>
<g>
	<g>
		<path class="st0" d="M6.6,66.8v16.1c0,1,0.8,1.8,1.8,1.8h12.5c1,0,1.8-0.8,1.8-1.8V54.5l-9.1,9.1C11.7,65.5,9.2,66.6,6.6,66.8z"/>
		<path class="st0" d="M28.9,54.3v28.6c0,1,0.8,1.8,1.8,1.8h12.5c1,0,1.8-0.8,1.8-1.8V66.1c-2.8-0.1-5.5-1.2-7.5-3.2L28.9,54.3z"/>
		<path class="st0" d="M51.2,64.3v18.6c0,1,0.8,1.8,1.8,1.8h12.5c1,0,1.8-0.8,1.8-1.8V48.5L53,62.9C52.5,63.4,51.9,63.9,51.2,64.3z"
			/>
		<path class="st0" d="M88.5,27.4L73.6,42.3v40.6c0,1,0.8,1.8,1.8,1.8h12.5c1,0,1.8-0.8,1.8-1.8V28.5c-0.4-0.3-0.7-0.7-0.9-0.9
			L88.5,27.4z"/>
		<path class="st0" d="M98.7,1c-0.6-0.6-1.5-1-2.6-1c-0.1,0-0.2,0-0.3,0C90,0.3,84.2,0.6,78.4,0.8c-0.8,0-1.8,0.1-2.7,0.9
			c-0.3,0.3-0.5,0.6-0.6,0.9c-0.9,1.9,0.3,3.1,0.9,3.6l1.5,1.5c1,1,2,2,3.1,3.1L45.4,46L29.6,30.2c-0.9-0.9-2.2-1.5-3.6-1.5
			c-1.4,0-2.6,0.5-3.5,1.5l-21,21c-2,2-2,5.1,0,7.1l0.9,0.9c0.9,0.9,2.2,1.5,3.6,1.5c1.4,0,2.6-0.5,3.5-1.5L26,42.7l15.8,15.8
			c0.9,0.9,2.2,1.5,3.6,1.5c1.4,0,2.6-0.5,3.6-1.5l39.7-39.7l4.5,4.5c0.5,0.5,1.3,1.3,2.4,1.3c0.5,0,0.9-0.1,1.4-0.4
			c0.3-0.2,0.6-0.4,0.9-0.6c0.9-0.9,1-2,1.1-2.9c0.2-3.8,0.3-7.5,0.5-11.3l0.3-5.7C99.6,2.6,99.3,1.7,98.7,1z"/>
	</g>
</g>
</svg>
