<?xml version="1.0" encoding="utf-8"?>
<!-- Generator: Adobe Illustrator 24.1.1, SVG Export Plug-In . SVG Version: 6.00 Build 0)  -->
<svg version="1.1" id="Layer_1" xmlns="http://www.w3.org/2000/svg" xmlns:xlink="http://www.w3.org/1999/xlink" x="0px" y="0px"
	 viewBox="0 0 141.6 95.5" style="enable-background:new 0 0 141.6 95.5;" xml:space="preserve">
<style type="text/css">
	.st0{fill:#FFFFFF;}
</style>
<g>
	<g>
		<path class="st0" d="M123.3,20c-0.8-1.2-2.2-1.9-3.6-1.9h-28v60.1h4.5c0.6-4.1,2.5-7.9,5.5-10.8c3.7-3.7,8.6-5.7,13.8-5.7
			c5.2,0,10.1,2,13.8,5.7c3,3,4.9,6.7,5.5,10.8h2.4c2.5,0,4.4-2,4.4-4.4V47.6c0-0.9-0.3-1.8-0.8-2.5L123.3,20z M128,45h-27.1
			c-1.7,0-3.1-1.4-3.1-3.1V28.6c0-1.7,1.4-3.1,3.1-3.1h16.5c1,0,2,0.5,2.6,1.4l10,14.5C131,42.9,129.9,45,128,45z"/>
		<path class="st0" d="M9.6,78.2c0.6-4.1,2.5-7.9,5.5-10.8c3.7-3.7,8.6-5.7,13.8-5.7s10.1,2,13.8,5.7c3,3,4.9,6.7,5.5,10.8h38.3
			V12.7h11.9c2.5,0,4.4-2,4.4-4.4V4.4c0-2.5-2-4.4-4.4-4.4H80.2H67.5H4.4C1.9,0,0,2,0,4.4v69.4c0,2.5,2,4.4,4.4,4.4
			C4.4,78.2,9.6,78.2,9.6,78.2z M22.5,32.2c0-2.5,2-4.4,4.4-4.4H37V17.7c0-2.5,2-4.4,4.4-4.4h4.1c2.5,0,4.4,2,4.4,4.4v10.1H60
			c2.5,0,4.4,2,4.4,4.4v4.1c0,2.5-2,4.4-4.4,4.4H49.9v10.1c0,2.5-2,4.4-4.4,4.4h-4.1c-2.5,0-4.4-2-4.4-4.4v-10H26.9
			c-2.5,0-4.4-2-4.4-4.4V32.2L22.5,32.2z"/>
		<path class="st0" d="M28.9,66.9c-6.9,0-12.6,4.9-14,11.3c-0.2,0.8-0.3,1.7-0.3,2.6c0,0.1,0,0.3,0,0.4c0,0.8,0.1,1.5,0.2,2.2
			c1.1,6.8,7,12.1,14.1,12.1S42,90.3,43,83.4c0.1-0.7,0.2-1.5,0.2-2.2c0-0.1,0-0.3,0-0.4c0-0.9-0.1-1.7-0.3-2.6
			C41.5,71.7,35.8,66.9,28.9,66.9z"/>
		<path class="st0" d="M115.4,95.5c7.9,0,14.3-6.4,14.3-14.3c0-1-0.1-2-0.3-3c-1.4-6.5-7.1-11.3-14-11.3s-12.6,4.9-14,11.3
			c-0.2,1-0.3,1.9-0.3,3C101.1,89.1,107.5,95.5,115.4,95.5z"/>
	</g>
</g>
</svg>
