<?xml version="1.0" encoding="utf-8"?>
<!-- Generator: Adobe Illustrator 24.1.1, SVG Export Plug-In . SVG Version: 6.00 Build 0)  -->
<svg version="1.1" id="Layer_1" xmlns="http://www.w3.org/2000/svg" xmlns:xlink="http://www.w3.org/1999/xlink" x="0px" y="0px"
	 viewBox="0 0 86.7 85.6" style="enable-background:new 0 0 86.7 85.6;" xml:space="preserve">
<style type="text/css">
	.st0{fill:#FFFFFF;}
</style>
<path class="st0" d="M86.6,28.6C85.9,12,66.5,14.7,56.1,15.7c-2.2,0.2-5,0.6-8.1,1.1c-0.9-1.7-2.6-4-5.7-4.7l2.2-8.3c0,0,0,0,0,0
	c1.1,0,1.9-0.9,1.9-1.9c0-1.1-0.9-1.9-1.9-1.9c-1.1,0-1.9,0.9-1.9,1.9c0,0.6,0.3,1.2,0.8,1.5l-2.2,8.4c-0.8-0.1-1.8,0-2.8,0.1
	c-1.8,0.3-3.3,0.8-4.4,1.4l-2.7-3.8c0.2-0.3,0.4-0.7,0.4-1.1c0-1.1-0.9-1.9-1.9-1.9c-1.1,0-1.9,0.9-1.9,1.9c0,1.1,0.9,1.9,1.9,1.9
	c0.2,0,0.4,0,0.6-0.1l2.6,3.7c-3.1,2.1-3.8,5-3.9,6.7c-6.9,1.7-13.5,3.8-18.5,6c-9.2,4.1-11,8.2-10.4,12.2C0.5,41.8,3,65,6,70.8
	c2.9,5.7,4.9,6.7,11.5,7.6c-0.6,2.5-1.5,7-0.6,7.3c0.9,0.2,3.1-4.7,4-6.9c9.1,0.9,28.8,1.9,36.5,0.6c2.1-0.4,4-0.6,5.6-0.9
	c0.9,2.2,3.2,7.1,4.1,6.9c0.9-0.2-0.2-5.1-0.8-7.6c3.2-0.8,5.5-2,7.9-4.7C78.4,68.3,87.3,45.2,86.6,28.6z M56.6,74.2
	c-6.2,3.4-31.2,1.8-34.7,1.3s-7.5-0.1-11-5.4C7.3,64.8,5.2,46.6,4.7,40c-0.6-6.6,7.2-10,14.1-12.3c0,0,14.8-4.5,33-5.6
	c6.7-0.4,18,0.3,18.2,12.8C70,47.4,62.7,70.8,56.6,74.2z M70.1,67.9c-1.6,0-2.9-1.3-2.9-2.9c0-1.6,1.3-2.9,2.9-2.9
	c1.6,0,2.9,1.3,2.9,2.9C73,66.6,71.7,67.9,70.1,67.9z M73.3,60.1c-1.6,0-2.9-1.3-2.9-2.9c0-1.6,1.3-2.9,2.9-2.9
	c1.6,0,2.9,1.3,2.9,2.9C76.2,58.8,74.9,60.1,73.3,60.1z M82.8,42.1h-11c-0.2,0-0.4-0.2-0.4-0.4c0-0.2,0.2-0.4,0.4-0.4h11
	c0.2,0,0.4,0.2,0.4,0.4C83.2,41.9,83,42.1,82.8,42.1z M82.8,40.6h-11c-0.2,0-0.4-0.2-0.4-0.4c0-0.2,0.2-0.4,0.4-0.4h11
	c0.2,0,0.4,0.2,0.4,0.4C83.2,40.4,83,40.6,82.8,40.6z M82.8,39.1h-11c-0.2,0-0.4-0.2-0.4-0.4s0.2-0.4,0.4-0.4h11
	c0.2,0,0.4,0.2,0.4,0.4S83,39.1,82.8,39.1z M82.8,37.7h-11c-0.2,0-0.4-0.2-0.4-0.4c0-0.2,0.2-0.4,0.4-0.4h11c0.2,0,0.4,0.2,0.4,0.4
	C83.2,37.5,83,37.7,82.8,37.7z M82.8,36.2h-11c-0.2,0-0.4-0.2-0.4-0.4c0-0.2,0.2-0.4,0.4-0.4h11c0.2,0,0.4,0.2,0.4,0.4
	C83.2,36,83,36.2,82.8,36.2z M82.8,34.7h-11c-0.2,0-0.4-0.2-0.4-0.4c0-0.2,0.2-0.4,0.4-0.4h11c0.2,0,0.4,0.2,0.4,0.4
	C83.2,34.6,83,34.7,82.8,34.7z M82.8,33.3h-11c-0.2,0-0.4-0.2-0.4-0.4s0.2-0.4,0.4-0.4h11c0.2,0,0.4,0.2,0.4,0.4S83,33.3,82.8,33.3z
	"/>
</svg>
