<?xml version="1.0" encoding="utf-8"?>
<!-- Generator: Adobe Illustrator 24.1.1, SVG Export Plug-In . SVG Version: 6.00 Build 0)  -->
<svg version="1.1" id="Layer_1" xmlns="http://www.w3.org/2000/svg" xmlns:xlink="http://www.w3.org/1999/xlink" x="0px" y="0px"
	 viewBox="0 0 112.2 83.8" style="enable-background:new 0 0 112.2 83.8;" xml:space="preserve">
<style type="text/css">
	.st0{fill:#FFFFFF;}
</style>
<g>
	<g>
		<path class="st0" d="M57.1,0H35.9C19.1,0,5,11.6,1.2,27.2h90.7C88,11.6,73.9,0,57.1,0z M31.8,14.4l-3.4,2.5l1.3,4
			c0.2,0.5,0,1-0.4,1.3c-0.2,0.2-0.5,0.2-0.7,0.2s-0.5-0.1-0.7-0.2l-3.4-2.5l-3.4,2.5c-0.4,0.3-1,0.3-1.4,0s-0.6-0.9-0.4-1.3l1.3-4
			l-3.4-2.5c-0.4-0.3-0.6-0.9-0.4-1.3c0.2-0.5,0.6-0.8,1.1-0.8h4.2l1.3-4c0.2-0.5,0.6-0.8,1.1-0.8s1,0.3,1.1,0.8l1.3,4h4.2
			c0.5,0,1,0.3,1.1,0.8C32.4,13.5,32.3,14.1,31.8,14.4z M53.9,14.4l-3.4,2.5l1.3,4c0.2,0.5,0,1-0.4,1.3c-0.2,0.2-0.5,0.2-0.7,0.2
			s-0.5-0.1-0.7-0.2l-3.4-2.5l-3.4,2.5c-0.4,0.3-1,0.3-1.4,0s-0.6-0.9-0.4-1.3l1.3-4l-3.4-2.5c-0.4-0.3-0.6-0.9-0.4-1.3
			c0.2-0.5,0.6-0.8,1.1-0.8h4.2l1.3-4c0.2-0.5,0.6-0.8,1.1-0.8s1,0.3,1.1,0.8l1.3,4h4.2c0.5,0,1,0.3,1.1,0.8
			C54.5,13.5,54.4,14.1,53.9,14.4z M75.3,14.4l-3.4,2.5l1.3,4c0.2,0.5,0,1-0.4,1.3c-0.2,0.2-0.5,0.2-0.7,0.2s-0.5-0.1-0.7-0.2
			L68,19.7l-3.4,2.5c-0.4,0.3-1,0.3-1.4,0s-0.6-0.9-0.4-1.3l1.3-4l-3.4-2.5c-0.4-0.3-0.6-0.9-0.4-1.3s0.6-0.8,1.1-0.8h4.2l1.3-4
			c0.2-0.5,0.6-0.8,1.1-0.8s1,0.3,1.1,0.8l1.3,4h4.2c0.5,0,1,0.3,1.1,0.8C75.9,13.5,75.7,14.1,75.3,14.4z"/>
		<path class="st0" d="M100.8,49.9v18.3c0,2.3-1.9,4.2-4.2,4.2c-2.5,0-3.8-2.1-3.8-4.2V49.9l0,0V35.8c0-0.8,0-1.6-0.1-2.4H0.1
			C0,34.2,0,35,0,35.8v47.5h19.4V57.7h36.4v25.5H74V57c0-2.1,1.7-3.8,3.8-3.8c1.7,0,3.6,1.3,3.6,3.8v11.2c0,8.8,6.7,15.6,15.2,15.6
			c8.6,0,15.6-7,15.6-15.6V49.9H100.8z"/>
	</g>
</g>
</svg>
