<?xml version="1.0" encoding="utf-8"?>
<!-- Generator: Adobe Illustrator 24.1.1, SVG Export Plug-In . SVG Version: 6.00 Build 0)  -->
<svg version="1.1" id="Layer_1" xmlns="http://www.w3.org/2000/svg" xmlns:xlink="http://www.w3.org/1999/xlink" x="0px" y="0px"
	 viewBox="0 0 97.8 117" style="enable-background:new 0 0 97.8 117;" xml:space="preserve">
<style type="text/css">
	.st0{fill:#FFFFFF;}
</style>
<g>
	<g>
		<g>
			<path class="st0" d="M37,56.2c-2.6,0-4.7,2.1-4.7,4.8c0,2.6,2.1,4.8,4.7,4.8c2.6,0,4.7-2.1,4.7-4.8C41.7,58.4,39.6,56.2,37,56.2z
				"/>
			<path class="st0" d="M60.9,56.2c-2.6,0-4.7,2.1-4.7,4.8s2.1,4.8,4.7,4.8c2.6,0,4.7-2.1,4.7-4.8S63.5,56.2,60.9,56.2z"/>
			<path class="st0" d="M40.7,95.1c-2.2,0-4.1,1.8-4.1,4.1c0,2.3,1.8,4.1,4.1,4.1c2.2,0,4.1-1.8,4.1-4.1
				C44.8,96.9,42.9,95.1,40.7,95.1z"/>
			<path class="st0" d="M57.2,95.1c-2.3,0-4.1,1.9-4.1,4.1c0,2.3,1.8,4.1,4.1,4.1s4.1-1.9,4.1-4.1C61.3,96.9,59.5,95.1,57.2,95.1z"
				/>
			<path class="st0" d="M96.9,2.9l-0.6-2.3l-2.4-0.4c-0.4-0.1-10.2-1.4-18.5,5c-4.5,3.5-7.6,8.4-9.2,14.9c-0.3-1.8-1-3.4-2.2-4.7
				c-3.5-4.1-10.2-5-15.1-5c-4.9,0-11.6,0.9-15.1,5c-1.2,1.4-1.9,3-2.2,4.7c-1.7-6.4-4.8-11.4-9.2-14.9c-8.2-6.4-18-5-18.5-5
				L1.5,0.6L0.9,2.9C0.8,3.2-0.8,9.7,0.6,17.6c1.2,6.9,4.9,16,15.5,22c-1.3,4.7-1.8,10.5-1,17.6c1,8.8,3,14.1,5.5,20.2
				c0.9,2.4,1.9,4.8,2.9,7.7c0.6,1.7,0.7,6.4,0.5,9.2v0.2c0,10.8,5.3,16.2,9.8,18.8C39,116.4,44.9,117,49,117s10-0.6,15.2-3.7
				c4.5-2.7,9.8-8.1,9.8-18.8v-0.2c-0.1-2.8,0-7.6,0.5-9.2c1-2.9,2-5.3,2.9-7.7c2.4-6.1,4.5-11.4,5.5-20.2c0.8-7.1,0.3-12.9-1-17.6
				c10.6-6,14.3-15.1,15.5-22C98.6,9.7,97,3.2,96.9,2.9z M39.3,20c1.3-1.5,5-2.5,9.7-2.5s8.4,1,9.7,2.5c0.4,0.4,0.7,1.1,0.5,2.5
				c-0.5,3.5-1.2,7.4-1.8,10.4L49,29.1l-8.4,3.8c-0.5-3-1.2-6.9-1.8-10.4C38.5,21.1,38.9,20.4,39.3,20z M18.9,32.9
				c-6.1-3.7-9.8-9.2-11.1-16.3c-0.7-3.7-0.5-7.1-0.3-9.4c2.6,0.1,6.9,0.8,10.6,3.7c3.9,3,6.3,7.9,7.4,14.5
				C23,27.3,20.7,29.8,18.9,32.9z M60.5,107.2c-4,2.4-8.9,2.7-11.5,2.7s-7.5-0.4-11.5-2.7c-4.2-2.5-6.3-6.6-6.3-12.6
				c0-0.3,0-0.8,0-1.4c4-3.7,10.7-6,17.7-6s13.7,2.3,17.7,6c0,0.6,0,1.1,0,1.4C66.7,100.6,64.7,104.7,60.5,107.2z M75.7,56.5
				c-0.9,7.9-2.7,12.5-5,18.3c-1,2.4-2,5-3,8c-0.2,0.6-0.3,1.2-0.5,1.9c-5-3-11.4-4.7-18.2-4.7s-13.2,1.7-18.2,4.7
				c-0.1-0.7-0.3-1.3-0.5-1.9c-1-3-2-5.6-3-8c-2.3-5.8-4.1-10.5-5-18.3c-0.9-8.7,0.1-15.6,3.2-20.5c1.7-2.8,4.1-5,7.2-6.6
				c0.9,4.9,1.7,9.3,1.7,9.4l0.9,4.5L49.1,37l13.8,6.3l0.9-4.5c0-0.1,0.8-4.4,1.7-9.4c3,1.6,5.5,3.8,7.2,6.6
				C75.5,40.9,76.6,47.8,75.7,56.5z M90.2,16.4c-1.2,7.3-5,12.8-11.1,16.5c-1.8-3.1-4.1-5.6-6.5-7.5c1-6.6,3.5-11.5,7.4-14.5
				c3.7-2.9,7.9-3.6,10.6-3.7C90.6,9.5,90.8,12.8,90.2,16.4z"/>
		</g>
	</g>
</g>
</svg>
