<?xml version="1.0" encoding="utf-8"?>
<!-- Generator: Adobe Illustrator 24.1.1, SVG Export Plug-In . SVG Version: 6.00 Build 0)  -->
<svg version="1.1" id="Layer_1" xmlns="http://www.w3.org/2000/svg" xmlns:xlink="http://www.w3.org/1999/xlink" x="0px" y="0px"
	 viewBox="0 0 626 263.1" style="enable-background:new 0 0 626 263.1;" xml:space="preserve">
<style type="text/css">
	.st0{fill:#FFFFFF;}
</style>
<path class="st0" d="M462.8,0C404.6,0,340.1,30.5,313,30.5S221.3,0,163.2,0S0,37.6,0,62.4s41.2,200.7,163.9,200.7
	c66.7,0,117-82.3,149.1-82.3s82.4,82.3,149.1,82.3C584.8,263.1,626,87.2,626,62.4S520.9,0,462.8,0z M181.2,166
	c-16.3,0-58.9-14.2-85.1-64.5c0,0,28.4-16.3,58.2-16.3s69.5,26.2,87.9,66.7C242.2,151.8,197.5,166,181.2,166z M444.7,166
	c-16.3,0-61-14.2-61-14.2c18.4-40.4,58.2-66.7,87.9-66.7c29.8,0,58.2,16.3,58.2,16.3C503.6,151.8,461,166,444.7,166z"/>
</svg>
