<?xml version="1.0" encoding="utf-8"?>
<!-- Generator: Adobe Illustrator 24.1.1, SVG Export Plug-In . SVG Version: 6.00 Build 0)  -->
<svg version="1.1" id="Layer_1" xmlns="http://www.w3.org/2000/svg" xmlns:xlink="http://www.w3.org/1999/xlink" x="0px" y="0px"
	 viewBox="0 0 297.3 195.9" style="enable-background:new 0 0 297.3 195.9;" xml:space="preserve">
<style type="text/css">
	.st0{fill:#FFFFFF;}
</style>
<g>
	<g>
		<g>
			<path class="st0" d="M239.2,54.7H57.4c-2.2,0-4-1.8-4-4s1.8-4,4-4h181.8c2.2,0,4,1.8,4,4S241.4,54.7,239.2,54.7z"/>
			<path class="st0" d="M239.2,71.3H57.4c-2.2,0-4-1.8-4-4s1.8-4,4-4h181.8c2.2,0,4,1.8,4,4S241.4,71.3,239.2,71.3z"/>
			<path class="st0" d="M239.2,88H57.4c-2.2,0-4-1.8-4-4s1.8-4,4-4h181.8c2.2,0,4,1.8,4,4S241.4,88,239.2,88z"/>
			<path class="st0" d="M239.2,104.6H57.4c-2.2,0-4-1.8-4-4s1.8-4,4-4h181.8c2.2,0,4,1.8,4,4S241.4,104.6,239.2,104.6z"/>
		</g>
	</g>
	<g>
		<g>
			<path class="st0" d="M239.2,121.3H57.4c-2.2,0-4-1.8-4-4s1.8-4,4-4h181.8c2.2,0,4,1.8,4,4S241.4,121.3,239.2,121.3z"/>
			<path class="st0" d="M239.2,138H57.4c-2.2,0-4-1.8-4-4s1.8-4,4-4h181.8c2.2,0,4,1.8,4,4S241.4,138,239.2,138z"/>
			<path class="st0" d="M239.2,154.6H57.4c-2.2,0-4-1.8-4-4s1.8-4,4-4h181.8c2.2,0,4,1.8,4,4S241.4,154.6,239.2,154.6z"/>
		</g>
	</g>
	<g>
		<g>
			<path class="st0" d="M277.4,174.1H19.8c-2.2,0-4-1.8-4-4V19.7C15.8,8.8,24.7,0,35.5,0h226.2c10.9,0,19.7,8.8,19.7,19.7v150.4
				C281.4,172.3,279.6,174.1,277.4,174.1z M23.8,166.1h249.6V19.7c0-6.4-5.2-11.7-11.7-11.7H35.5c-6.4,0-11.7,5.2-11.7,11.7V166.1z"
				/>
			<path class="st0" d="M148.6,23.2c-4.2,0-7.6-3.4-7.6-7.6c0-4.2,3.4-7.6,7.6-7.6c4.2,0,7.6,3.4,7.6,7.6
				C156.2,19.8,152.8,23.2,148.6,23.2z M148.6,15.2c-0.2,0-0.4,0.2-0.4,0.4c0,0.2,0.2,0.4,0.4,0.4c0.2,0,0.4-0.2,0.4-0.4
				C149.1,15.4,148.9,15.2,148.6,15.2z"/>
			<path class="st0" d="M277.6,195.9H19.7C8.8,195.9,0,187,0,176.2v-6.1c0-2.2,1.8-4,4-4h108.4c2.2,0,4,1.8,4,4v1.5
				c0,1.8,1.5,3.3,3.3,3.3h58c1.8,0,3.3-1.5,3.3-3.3v-1.5c0-2.2,1.8-4,4-4h108.4c2.2,0,4,1.8,4,4v6.1
				C297.3,187,288.4,195.9,277.6,195.9z M8,174.1v2.1c0,6.4,5.2,11.7,11.7,11.7h257.9c6.4,0,11.7-5.2,11.7-11.7v-2.1H188.6
				c-1.1,5-5.6,8.7-11,8.7h-58c-5.3,0-9.8-3.7-11-8.7H8z"/>
			<path class="st0" d="M277.4,30.2H19.8c-2.2,0-4-1.8-4-4s1.8-4,4-4h257.6c2.2,0,4,1.8,4,4S279.6,30.2,277.4,30.2z"/>
			<path class="st0" d="M36.8,185h-17c-2.2,0-4-1.8-4-4s1.8-4,4-4h17c2.2,0,4,1.8,4,4S39,185,36.8,185z"/>
			<path class="st0" d="M66.3,185h-17c-2.2,0-4-1.8-4-4s1.8-4,4-4h17c2.2,0,4,1.8,4,4S68.5,185,66.3,185z"/>
		</g>
	</g>
</g>
</svg>
