<?xml version="1.0" encoding="utf-8"?>
<!-- Generator: Adobe Illustrator 24.1.1, SVG Export Plug-In . SVG Version: 6.00 Build 0)  -->
<svg version="1.1" id="Layer_1" xmlns="http://www.w3.org/2000/svg" xmlns:xlink="http://www.w3.org/1999/xlink" x="0px" y="0px"
	 viewBox="0 0 403.6 287.8" style="enable-background:new 0 0 403.6 287.8;" xml:space="preserve">
<style type="text/css">
	.st0{fill:#FFFFFF;}
</style>
<g>
	<path class="st0" d="M75.1,137.4c21.2-0.4,38.2-8.1,38.1-17.2c-0.1-9.2-17.4-16.3-38.6-16c-21.2,0.4-38.2,8.1-38.1,17.2
		C36.7,130.6,53.9,137.7,75.1,137.4z"/>
	<path class="st0" d="M384.3,2.2c-11.8-4.6-21.7-0.9-24.1,0.2c-4.7,1.3-43.5,11.7-69.2,29.2c-26.3,17.8-50.4,37.1-86.2,68.5
		c-14.8,12.9-27.1,24.2-37,33.2c-8.8,8-15.9,14.5-20.8,18.6c-2.7-11-6.5-25.6-12.3-37c-0.1-0.3-0.2-0.7-0.5-1.3
		c-5.5-13.7-30.2-23-60-22.5c-28.8,0.4-53.1,10-58.9,23.3c-0.4,1-0.7,1.6-0.8,2c-1.3,3.2-17.6,45.5-14,91.9
		c3.5,44.6,20.8,66.3,61.3,75.9c1.8,0.5,3.7,0.9,5.7,1.4c23.2,4.6,40.4,2,59.4-9c19.9-11.5,42.7-33.1,76.4-72.1l28.1-32.6
		c49-56.7,78.6-90.9,86.4-98.8c5.3-5.4,33.6-32.3,69.6-39.6c5.5,0.9,13.6-0.7,15.8-7.2C405.5,19.4,397.8,7.4,384.3,2.2z M23.3,119.8
		l0.2-0.5c0.1-0.3,0.2-0.6,0.5-1.3c3.7-8.3,23.6-17.3,50.5-17.7c27.7-0.4,47.8,8.1,51.2,16.6c0.3,0.7,0.4,1,0.5,1.2l0.3,0.7
		c0.6,1.2,1.2,2.4,1.8,3.7c-1.6,4.5-6.7,9-14.5,12.6c-10.2,4.7-24,7.4-38.7,7.6c-26.3,0.4-49-7.6-53.6-18
		C22.6,121.7,23.3,119.9,23.3,119.8z M224.4,165.8l-28.1,32.6c-64.6,74.8-89.4,85.5-126.9,78c-40.1-8-56.3-26.6-59.5-68.7
		c-2.5-32,5.2-62.7,10-77.9c4.7,6.2,14.2,11.2,26.6,14.1c8.4,2,18.2,3,28.7,2.9c15.2-0.3,29.5-3.1,40.3-8c7-3.2,12.1-7.1,14.8-11.3
		c4,10.3,6.8,22,8.8,30.4l2.2,9.3l5.5-3.4c4.6-2.8,13.2-10.7,27.5-23.7c9.9-9,22.2-20.2,36.9-33.1c0.1,0,0.1-0.1,0.2-0.1
		c3.6,2.2,9.8,6.4,16.7,13.7c8.4,8.9,14.2,15.8,17.5,20.7C239,148.9,231.9,157.1,224.4,165.8z M388.6,24.1l-1-0.2l-1,0.2
		c-39.2,7.6-69.7,36.6-75.4,42.4c-6.7,6.7-28.1,31.3-62.9,71.7c-3.5-5-9.2-11.7-17.4-20.4c-6.6-6.9-12.4-11.2-16.4-13.7
		c33.6-29.4,56.8-47.8,81.9-64.9c25.4-17.3,66.3-27.8,66.7-27.9l0.5-0.1L364,11c0.4-0.1,7.8-3.7,17.1-0.1
		c9.2,3.5,13.2,10.4,13.3,12.4C393.8,24,390.8,24.6,388.6,24.1z"/>
</g>
</svg>
