<?xml version="1.0" encoding="utf-8"?>
<!-- Generator: Adobe Illustrator 24.1.1, SVG Export Plug-In . SVG Version: 6.00 Build 0)  -->
<svg version="1.1" id="Layer_1" xmlns="http://www.w3.org/2000/svg" xmlns:xlink="http://www.w3.org/1999/xlink" x="0px" y="0px"
	 viewBox="0 0 99.6 99.5" style="enable-background:new 0 0 99.6 99.5;" xml:space="preserve">
<style type="text/css">
	.st0{fill:#FFFFFF;}
</style>
<g>
	<g>
		<path class="st0" d="M53.6,45.8c-3.7-3.7-6.4-8.2-7.8-13.2l-31.6,37l0,0c-3.8,4.3-3.6,10.9,0.5,15s10.7,4.3,15,0.5l37-31.6
			C61.8,52.3,57.3,49.6,53.6,45.8z M38.8,65.3l-4.7-4.7l9.3-9.3l4.7,4.7L38.8,65.3z"/>
	</g>
</g>
<g>
	<g>
		<path class="st0" d="M10.1,89.4c-0.8-0.8-1.5-1.7-2.1-2.6l-8,8l4.7,4.7l8-8C11.7,90.9,10.9,90.3,10.1,89.4z"/>
	</g>
</g>
<g>
	<g>
		<path class="st0" d="M92.5,7c-9.4-9.4-24.8-9.4-34.2,0c-0.4,0.4-0.9,0.9-1.3,1.4c0.1,1.4,0.5,3.3,1.6,5.6
			c2.2,4.9,6.2,10.5,11.3,15.6C75,34.8,80.6,38.8,85.5,41c2.4,1,4.3,1.5,5.6,1.6c0.5-0.4,0.9-0.8,1.4-1.3
			C101.9,31.8,101.9,16.5,92.5,7z"/>
	</g>
</g>
<g>
	<g>
		<path class="st0" d="M82.8,46.9c-5.6-2.5-11.9-7-17.6-12.7C59.5,28.5,55,22.3,52.5,16.6c0-0.1-0.1-0.2-0.1-0.3
			c-2.8,8.4-0.9,18.1,5.8,24.8c6.7,6.7,16.4,8.7,24.8,5.8C83,47.1,82.9,46.9,82.8,46.9z"/>
	</g>
</g>
</svg>
