<?xml version="1.0" encoding="utf-8"?>
<!-- Generator: Adobe Illustrator 24.1.1, SVG Export Plug-In . SVG Version: 6.00 Build 0)  -->
<svg version="1.1" id="Layer_1" xmlns="http://www.w3.org/2000/svg" xmlns:xlink="http://www.w3.org/1999/xlink" x="0px" y="0px"
	 viewBox="0 0 110 88.9" style="enable-background:new 0 0 110 88.9;" xml:space="preserve">
<style type="text/css">
	.st0{fill:#FFFFFF;}
</style>
<path class="st0" d="M17.3,81.8l83.6,7.1c1.5,0.1,2.9-0.4,4.1-1.3c1.1-1,1.8-2.3,1.9-3.7l3.1-36.8c0.1-1.5-0.3-2.9-1.3-4
	c-1-1.1-2.3-1.8-3.8-2l-4-0.3l0,0.3c0.3,1.4,0,2.8-0.6,4l2.9,0.2c1.4,0.1,2.5,1.4,2.4,2.9l-2.8,33.3c-0.2,1.4-1.5,2.5-2.9,2.4
	L19.3,77c-1.4-0.1-2.5-1.4-2.4-2.9l1-12.5l-4.5,0.8l-1.1,13.5C12,78.8,14.3,81.5,17.3,81.8z"/>
<path class="st0" d="M49.1,61.7l0.9,0.1c0.4,0,0.8,0,1.1-0.1c0.3-0.1,0.6-0.2,0.9-0.4c0.2-0.2,0.4-0.4,0.6-0.7
	c0.2-0.3,0.3-0.6,0.3-1c0-0.4,0-0.7-0.1-1c-0.1-0.3-0.3-0.6-0.5-0.8c-0.2-0.2-0.5-0.4-0.8-0.5c-0.3-0.1-0.7-0.2-1.1-0.2l-2.7-0.2
	l-0.6,6.4l1.8,0.2L49.1,61.7z M49.5,58.4l0.8,0.1c0.3,0,0.5,0.1,0.7,0.3c0.2,0.2,0.2,0.4,0.2,0.7c0,0.3-0.1,0.5-0.3,0.6
	c-0.2,0.2-0.5,0.2-0.8,0.2l-0.7-0.2L49.5,58.4z"/>
<polygon class="st0" points="55.7,57.7 53.9,57.5 53.4,63.9 55.2,64.1 "/>
<polygon class="st0" points="57.9,64.1 59.7,64.3 60.1,59.5 62,59.7 62.1,58.1 56.5,57.6 56.4,59.2 58.3,59.4 "/>
<path class="st0" d="M63.1,63.8c0.3,0.3,0.6,0.6,1,0.8c0.4,0.2,0.8,0.4,1.3,0.4c0.4,0.1,0.7,0,1,0c0.3,0,0.6-0.1,0.8-0.2
	c0.3-0.1,0.5-0.2,0.7-0.4c0.1-0.1,0.3-0.3,0.5-0.5l-1.3-1.1c-0.1,0.1-0.2,0.2-0.3,0.3c-0.1,0.1-0.2,0.1-0.3,0.2
	c-0.1,0-0.3,0.1-0.4,0.1c-0.2,0-0.3,0-0.5,0s-0.4-0.1-0.6-0.2c-0.1-0.1-0.3-0.2-0.4-0.4c-0.2-0.2-0.2-0.4-0.3-0.6
	c-0.1-0.2-0.1-0.5-0.1-0.7s0.1-0.4,0.2-0.6s0.3-0.4,0.4-0.5c0.1-0.1,0.3-0.2,0.5-0.3c0.2-0.1,0.4-0.1,0.6-0.1
	c0.3,0.1,0.6,0.1,0.8,0.3c0.3,0.2,0.4,0.4,0.6,0.6l1.4-0.9c-0.1-0.2-0.2-0.4-0.4-0.6s-0.4-0.4-0.6-0.5c-0.2-0.1-0.4-0.2-0.7-0.3
	c-0.3-0.1-0.6-0.2-0.9-0.2c-0.5-0.1-1,0-1.4,0.1c-0.4,0.1-0.8,0.3-1.1,0.6c-0.3,0.3-0.6,0.6-0.8,1c-0.2,0.4-0.4,0.8-0.4,1.3
	c-0.1,0.4,0,0.9,0.1,1.3C62.6,63.1,62.8,63.5,63.1,63.8z"/>
<polygon class="st0" points="71.1,63 73.4,63.2 73.2,65.6 75,65.8 75.5,59.4 73.7,59.2 73.5,61.6 71.2,61.4 71.4,59 69.6,58.8 
	69.1,65.2 70.9,65.4 "/>
<path class="st0" d="M12.6,61.5l82.8-13.9c1.5-0.2,2.8-1,3.6-2.3c0.9-1.2,1.2-2.7,0.9-4.2L93.9,4.7C93.4,1.9,91.1,0,88.4,0
	c-0.3,0-0.6,0-1,0.1L4.7,14c-1.5,0.3-2.8,1.1-3.6,2.3c-0.9,1.2-1.2,2.7-1,4.1l6.1,36.5c0.3,1.5,1.1,2.8,2.3,3.6
	C9.7,61.4,11.2,61.8,12.6,61.5z M10.5,54.2L5,21.3c-0.2-1.4,0.7-2.8,2.2-3L87,4.9c1.4-0.2,2.8,0.7,3,2.2L95.5,40
	c0.2,1.4-0.8,2.8-2.2,3L13.5,56.4C12.1,56.6,10.7,55.7,10.5,54.2z"/>
<path class="st0" d="M36.8,36.2l1.8-0.3l-0.3-1.8l0.9-0.1c0.4,0,0.8-0.1,1.1-0.3c0.3-0.2,0.6-0.4,0.8-0.6c0.2-0.2,0.3-0.5,0.4-0.8
	c0.1-0.3,0.1-0.6,0-1c0-0.3-0.1-0.6-0.3-0.9c-0.1-0.2-0.3-0.4-0.6-0.6c-0.3-0.2-0.6-0.3-0.9-0.3c-0.3-0.1-0.7-0.1-1.1,0L35.9,30
	L36.8,36.2z M38.7,31.1c0.3,0,0.6,0,0.8,0.1c0.2,0.1,0.4,0.3,0.4,0.6c0,0.2,0,0.4-0.2,0.6c-0.2,0.1-0.4,0.2-0.7,0.3l-0.8,0.2
	l-0.3-1.7L38.7,31.1z"/>
<polygon class="st0" points="43.1,35.2 44.9,34.9 43.8,28.6 42,28.9 "/>
<polygon class="st0" points="46.8,29.7 47.6,34.5 49.4,34.2 48.6,29.4 50.5,29.1 50.2,27.6 44.6,28.5 44.9,30 "/>
<path class="st0" d="M51.7,32c0.3,0.3,0.6,0.7,0.9,0.9c0.4,0.2,0.8,0.4,1.2,0.5c0.4,0.1,0.8,0.1,1.3,0c0.3-0.1,0.6-0.2,0.8-0.4
	c0.3-0.1,0.5-0.2,0.7-0.4c0.2-0.2,0.4-0.4,0.5-0.6c0.2-0.3,0.3-0.5,0.4-0.7L56,30.6c0,0.2-0.1,0.3-0.2,0.4c-0.1,0.1-0.2,0.2-0.3,0.3
	c-0.1,0.1-0.2,0.1-0.3,0.2c-0.1,0-0.2,0.1-0.4,0.1c-0.2,0.1-0.4,0.1-0.6,0c-0.2-0.1-0.3-0.2-0.5-0.3c-0.2-0.1-0.3-0.3-0.4-0.5
	c-0.1-0.1-0.2-0.4-0.2-0.6c0-0.3,0-0.5,0-0.7c0-0.2,0.1-0.4,0.2-0.6c0.1-0.1,0.2-0.3,0.4-0.4c0.2-0.1,0.4-0.2,0.6-0.2
	c0.3,0,0.6,0,0.8,0.1c0.3,0.1,0.5,0.2,0.7,0.4l1.1-1.2c-0.2-0.2-0.4-0.4-0.6-0.5c-0.2-0.1-0.5-0.2-0.7-0.3c-0.3,0-0.5-0.1-0.8-0.1
	c-0.3,0-0.6,0-0.9,0.1c-0.5,0.1-0.9,0.3-1.3,0.5c-0.3,0.3-0.7,0.6-0.9,0.9c-0.2,0.4-0.4,0.8-0.5,1.2c-0.1,0.4-0.1,0.8,0,1.3
	C51.3,31.2,51.5,31.6,51.7,32z"/>
<polygon class="st0" points="60.5,32.3 60.1,29.9 62.4,29.5 62.8,31.9 64.6,31.6 63.5,25.3 61.7,25.6 62.1,28 59.8,28.4 59.4,26 
	57.6,26.3 58.7,32.6 "/>
</svg>
