<?xml version="1.0" encoding="utf-8"?>
<!-- Generator: Adobe Illustrator 24.1.1, SVG Export Plug-In . SVG Version: 6.00 Build 0)  -->
<svg version="1.1" id="Layer_1" xmlns="http://www.w3.org/2000/svg" xmlns:xlink="http://www.w3.org/1999/xlink" x="0px" y="0px"
	 viewBox="0 0 79.7 70.3" style="enable-background:new 0 0 79.7 70.3;" xml:space="preserve">
<style type="text/css">
	.st0{fill:#FFFFFF;}
</style>
<g>
	<path class="st0" d="M30.8,55.9H12.6c-1,0-1.8,0.8-1.8,1.8s0.8,1.8,1.8,1.8h18.2c1,0,1.8-0.8,1.8-1.8
		C32.6,56.7,31.8,55.9,30.8,55.9z"/>
	<path class="st0" d="M58,55.9H39.8c-1,0-1.8,0.8-1.8,1.8s0.8,1.8,1.8,1.8H58c1,0,1.8-0.8,1.8-1.8C59.8,56.7,59,55.9,58,55.9z"/>
	<path class="st0" d="M58,10.8H12.5c-1,0-1.8,0.8-1.8,1.8s0.8,1.8,1.8,1.8H58c1,0,1.8-0.8,1.8-1.8S59,10.8,58,10.8z"/>
	<path class="st0" d="M58,19.8H39.8c-1,0-1.8,0.8-1.8,1.8s0.8,1.8,1.8,1.8H58c1,0,1.8-0.8,1.8-1.8S59,19.8,58,19.8z"/>
	<path class="st0" d="M58,28.8H39.8c-1,0-1.8,0.8-1.8,1.8s0.8,1.8,1.8,1.8H58c1,0,1.8-0.8,1.8-1.8S59,28.8,58,28.8z"/>
	<path class="st0" d="M58,37.9H39.8c-1,0-1.8,0.8-1.8,1.8s0.8,1.8,1.8,1.8H58c1,0,1.8-0.8,1.8-1.8S59,37.9,58,37.9z"/>
	<path class="st0" d="M58,46.9H39.8c-1,0-1.8,0.8-1.8,1.8s0.8,1.8,1.8,1.8H58c1,0,1.8-0.8,1.8-1.8C59.8,47.7,59,46.9,58,46.9z"/>
	<path class="st0" d="M30.8,46.9H12.6c-1,0-1.8,0.8-1.8,1.8s0.8,1.8,1.8,1.8h18.2c1,0,1.8-0.8,1.8-1.8
		C32.6,47.7,31.8,46.9,30.8,46.9z"/>
	<path class="st0" d="M30.8,19.8H12.6c-1,0-1.8,0.8-1.8,1.8v18.2c0,1,0.8,1.8,1.8,1.8h18.2c1,0,1.8-0.8,1.8-1.8V21.6
		C32.6,20.6,31.8,19.8,30.8,19.8z M29,38H14.4V23.4H29V38z"/>
	<path class="st0" d="M76.1,9h-5.4V3.6c0-2-1.6-3.6-3.6-3.6H3.6C1.6,0,0,1.6,0,3.6v57.7c0,5,4,9,9,9h61.7c5,0,9-4,9-9V12.6
		C79.7,10.6,78.1,9,76.1,9z M76.1,61.3c0,3-2.4,5.4-5.4,5.4H9c-3,0-5.4-2.4-5.4-5.4V3.6h63.5v55c0,2.5,2,4.5,4.5,4.5
		c1,0,1.8-0.8,1.8-1.8s-0.8-1.8-1.8-1.8c-0.5,0-0.9-0.4-0.9-0.9v-46h5.4V61.3z"/>
</g>
</svg>
