<?xml version="1.0" encoding="utf-8"?>
<!-- Generator: Adobe Illustrator 24.1.1, SVG Export Plug-In . SVG Version: 6.00 Build 0)  -->
<svg version="1.1" id="Layer_1" xmlns="http://www.w3.org/2000/svg" xmlns:xlink="http://www.w3.org/1999/xlink" x="0px" y="0px"
	 viewBox="0 0 98.4 98.4" style="enable-background:new 0 0 98.4 98.4;" xml:space="preserve">
<style type="text/css">
	.st0{fill:#FFFFFF;}
</style>
<g>
	<path class="st0" d="M71.8,17.4c0-0.1,0-0.2,0-0.3V17c0-0.1,0-0.1,0-0.2c0-0.1,0-0.1,0-0.2c0-0.1,0-0.1,0-0.2
		c0-0.1-0.1-0.2-0.1-0.3V16c-0.1-0.2-0.2-0.4-0.3-0.6l0,0c-0.5-0.8-1.3-1.5-2.3-1.7c-2.1-0.6-4.2,0.5-4.9,2.5c0,0.1,0,0.1-0.1,0.2
		c-0.6,2.1,0.6,4.4,2.7,5s4.4-0.6,5-2.7c0-0.1,0.1-0.2,0.1-0.4v-0.1c0-0.1,0-0.2,0-0.3l0,0c0-0.1,0-0.2,0-0.3
		C71.8,17.5,71.8,17.4,71.8,17.4z"/>
	<path class="st0" d="M61.6,58.9c-0.1,0-0.3,0-0.4,0c-0.2,0-0.4,0-0.6,0.1l-0.3-0.3l-7.1-7.1l-0.1-0.1c0.7-1.3,0.7-2.9,0.2-4.3
		c0-0.1-0.1-0.2-0.1-0.3l0.1-0.1l7.1-7.1l0.2-0.2c0.9,0.1,1.9-0.1,2.6-0.8c1.1-1.1,1.1-2.7,0.3-3.9c-0.1-0.1-0.2-0.2-0.3-0.3
		c-1.1-1.2-3-1.2-4.2,0c-0.2,0.2-0.4,0.4-0.5,0.6c-0.3,0.6-0.4,1.3-0.3,1.9L58,37.2l-7.3,7.1l-0.1,0.1c-1.4-0.7-3.1-0.6-4.5,0.1l0,0
		L39,37.4l-0.2-0.2c0.2-0.8,0-1.6-0.5-2.3c-0.1-0.1-0.2-0.2-0.3-0.3c-1.2-1.2-3-1.2-4.2,0c-0.2,0.2-0.3,0.3-0.4,0.5
		c-0.7,1.1-0.6,2.7,0.4,3.6c0.7,0.7,1.7,1,2.7,0.8l0.1,0.1l7.1,7.1l0,0c-0.7,1.4-0.7,3,0,4.4l-0.1,0.1l-7.2,7.2l-0.2,0.2
		c-0.1,0-0.1,0-0.2,0c-0.8,0-1.6,0.2-2.2,0.9c-0.8,0.8-1.1,2.1-0.7,3.1c0.1,0.4,0.4,0.8,0.7,1.1c1.2,1.2,3,1.2,4.2,0
		c0.7-0.7,1-1.8,0.8-2.7l0.2-0.2l7.1-7.1l0.1-0.1c1.4,0.7,3,0.7,4.4,0l0.1,0.1l7.1,7.1l0.4,0.4c0,0.2-0.1,0.4-0.1,0.5
		c0,0.2,0,0.5,0.1,0.7c0.3,1.3,1.5,2.3,2.9,2.3c1.2,0,2.2-0.7,2.7-1.7c0.2-0.4,0.3-0.8,0.3-1.3c0-0.4-0.1-0.9-0.3-1.3
		C63.4,59.7,62.6,59,61.6,58.9z"/>
	<path class="st0" d="M49.2,0C22.1,0,0,22.1,0,49.2s22.1,49.2,49.2,49.2s49.2-22.1,49.2-49.2S76.3,0,49.2,0z M95.2,49.1
		c0,3.9-0.5,7.7-1.4,11.3l-17.9-4.8c0.5-2.1,0.8-4.3,0.8-6.5s-0.3-4.4-0.8-6.5l17.9-4.8C94.7,41.4,95.2,45.2,95.2,49.1z M3.2,49.1
		c0-3.9,0.5-7.7,1.4-11.3l17.9,4.8c-0.5,2.1-0.8,4.3-0.8,6.5s0.3,4.4,0.8,6.5L4.6,60.4C3.7,56.8,3.2,53.1,3.2,49.1z M71.1,43
		L71.1,43c0.1,0.3,0.2,0.6,0.2,0.8c0.4,1.7,0.6,3.5,0.6,5.3s-0.2,3.6-0.6,5.3c-0.1,0.3-0.1,0.5-0.2,0.8l0,0
		c-0.3,1.1-0.7,2.1-1.1,3.1l0,0c-0.3,0.7-0.7,1.5-1.1,2.2l0,0c-1.1,1.9-2.5,3.6-4,5.1c-2.6,2.4-5.7,4.3-9.2,5.3
		c-0.5,0.1-0.9,0.3-1.4,0.4c-0.1,0-0.1,0-0.2,0c-0.2,0-0.4,0.1-0.6,0.1c-0.1,0-0.3,0-0.4,0.1c-0.2,0-0.4,0.1-0.5,0.1
		c-0.3,0-0.6,0.1-0.9,0.1c-0.1,0-0.2,0-0.4,0s-0.5,0-0.7,0.1c-0.1,0-0.2,0-0.3,0c-0.3,0-0.7,0-1,0s-0.7,0-1,0c-0.1,0-0.2,0-0.3,0
		c-0.2,0-0.5,0-0.7-0.1c-0.1,0-0.2,0-0.4,0c-0.3,0-0.6-0.1-0.9-0.1c-0.2,0-0.4-0.1-0.5-0.1s-0.3,0-0.4-0.1c-0.2,0-0.4-0.1-0.6-0.1
		c-0.1,0-0.1,0-0.2,0c-0.5-0.1-0.9-0.2-1.4-0.4c-3.5-1-6.6-2.9-9.2-5.3c-0.8-0.7-1.5-1.5-2.2-2.4l0,0c-0.7-0.8-1.3-1.7-1.8-2.7l0,0
		c-0.4-0.7-0.8-1.4-1.1-2.2l0,0c-0.1-0.2-0.2-0.5-0.3-0.8l0,0c-0.3-0.8-0.6-1.5-0.8-2.3l0,0c-0.1-0.3-0.1-0.5-0.2-0.8
		c-0.4-1.7-0.6-3.5-0.6-5.3s0.2-3.6,0.6-5.3c0.1-0.3,0.1-0.5,0.2-0.8l0,0c0.2-0.8,0.5-1.6,0.8-2.3l0,0c0.1-0.3,0.2-0.5,0.3-0.8l0,0
		c0.3-0.7,0.7-1.5,1.1-2.2l0,0c0.5-0.9,1.2-1.8,1.8-2.7l0,0c0.7-0.8,1.4-1.6,2.2-2.4c2.6-2.4,5.7-4.3,9.2-5.3
		c0.5-0.1,0.9-0.3,1.4-0.4c0.1,0,0.1,0,0.2,0c0.2,0,0.4-0.1,0.6-0.1c0.1,0,0.3,0,0.4-0.1c0.2,0,0.4-0.1,0.5-0.1
		c0.3,0,0.6-0.1,0.9-0.1c0.1,0,0.2,0,0.4,0s0.5,0,0.7-0.1c0.1,0,0.2,0,0.3,0c0.3,0,0.7,0,1,0s0.7,0,1,0c0.1,0,0.2,0,0.3,0
		c0.2,0,0.5,0,0.7,0.1c0.1,0,0.2,0,0.4,0c0.3,0,0.6,0.1,0.9,0.1c0.2,0,0.4,0.1,0.5,0.1s0.3,0,0.4,0.1c0.2,0,0.4,0.1,0.6,0.1
		c0.1,0,0.1,0,0.2,0c0.5,0.1,0.9,0.2,1.4,0.4c3.5,1,6.6,2.9,9.2,5.3c0.8,0.7,1.5,1.5,2.2,2.4l0,0c0.7,0.8,1.3,1.7,1.8,2.7l0,0
		c0.4,0.7,0.8,1.4,1.1,2.2l0,0c0.1,0.2,0.2,0.5,0.3,0.8l0,0C70.6,41.5,70.8,42.2,71.1,43z M68.2,29.3c-3.1-3-7-5.3-11.3-6.5
		l4.8-17.9C69.2,7,75.9,11,81.3,16.2L68.2,29.3z M41.5,22.8c-4.3,1.3-8.2,3.5-11.3,6.5L17.1,16.2C22.5,10.9,29.2,7,36.7,4.9
		L41.5,22.8z M30.2,69c3.1,3,7,5.3,11.3,6.5l-4.8,17.9c-7.5-2.1-14.2-6.1-19.6-11.3L30.2,69z M56.9,75.5c4.3-1.3,8.2-3.5,11.3-6.5
		l13.1,13.1c-5.4,5.3-12.1,9.2-19.6,11.3L56.9,75.5z"/>
</g>
</svg>
