<?xml version="1.0" encoding="utf-8"?>
<!-- Generator: Adobe Illustrator 24.1.1, SVG Export Plug-In . SVG Version: 6.00 Build 0)  -->
<svg version="1.1" id="Layer_1" xmlns="http://www.w3.org/2000/svg" xmlns:xlink="http://www.w3.org/1999/xlink" x="0px" y="0px"
	 viewBox="0 0 94 109.3" style="enable-background:new 0 0 94 109.3;" xml:space="preserve">
<style type="text/css">
	.st0{fill:#FFFFFF;}
</style>
<g>
	<g>
		<path class="st0" d="M83.3,73.7H15.7c-1.3,0-2.3,1.1-2.3,2.3c0,1.3,1.1,2.3,2.3,2.3h67.6c1.3,0,2.3-1.1,2.3-2.3
			S84.6,73.7,83.3,73.7z"/>
	</g>
</g>
<g>
	<g>
		<path class="st0" d="M83.3,92.1H15.7c-1.3,0-2.3,1.1-2.3,2.3c0,1.3,1.1,2.3,2.3,2.3h67.6c1.3,0,2.3-1.1,2.3-2.3
			S84.6,92.1,83.3,92.1z"/>
	</g>
</g>
<g>
	<g>
		<path class="st0" d="M91.9,39.2H20L88.7,18c1.1-0.3,1.7-1.5,1.4-2.6l-4.3-14c-0.2-0.5-0.5-1-1-1.2c-0.5-0.3-1-0.3-1.6-0.1
			L1.5,25.3c-1.1,0.3-1.7,1.5-1.4,2.6l4.2,13.7v65.6c0,1.1,0.9,2.1,2.1,2.1h85.5c1.1,0,2.1-0.9,2.1-2.1V41.3
			C93.9,40.2,93,39.2,91.9,39.2z M80.3,43.4L69.7,54H56.5l10.6-10.6H80.3z M61.3,43.4L50.7,54H37.5l10.6-10.6H61.3z M42.2,43.4
			L31.6,54H18.4L29,43.4H42.2z M23.2,43.4L12.6,54H8.4V43.4H23.2z M82.4,4.6l3.1,10.1l-4,1.2l-13.2-7L82.4,4.6z M62.8,10.7l13.2,7
			l-12.7,3.9l-13.2-7L62.8,10.7z M44.6,16.3l13.2,7l-12.7,3.9l-13.2-7L44.6,16.3z M26.4,21.9l13.2,7l-12.7,3.9l-13.2-7L26.4,21.9z
			 M4.6,28.7l3.5-1.1l13.2,7L7.7,38.8L4.6,28.7z M89.8,105.2H8.4V58h81.4V105.2z M89.8,53.9H75.6l10.6-10.6h3.7v10.6H89.8z"/>
	</g>
</g>
</svg>
