<?xml version="1.0" encoding="utf-8"?>
<!-- Generator: Adobe Illustrator 24.1.1, SVG Export Plug-In . SVG Version: 6.00 Build 0)  -->
<svg version="1.1" id="Layer_1" xmlns="http://www.w3.org/2000/svg" xmlns:xlink="http://www.w3.org/1999/xlink" x="0px" y="0px"
	 viewBox="0 0 195.3 153.5" style="enable-background:new 0 0 195.3 153.5;" xml:space="preserve">
<style type="text/css">
	.st0{enable-background:new    ;}
	.st1{fill:#FFFFFF;}
</style>
<g>
	<g class="st0">
		<path class="st1" d="M34.3,151.9c-3.7,0-6.8-2.5-6.8-5.5c0-3.1,3.1-5.5,6.8-5.5c3.8,0,6.8,2.5,6.8,5.5
			C41.1,149.5,38.1,151.9,34.3,151.9z M52.9,151.9c-3.7,0-6.8-2.5-6.8-5.5c0-3.1,3.1-5.5,6.8-5.5c3.8,0,6.8,2.5,6.8,5.5
			C59.6,149.5,56.6,151.9,52.9,151.9z M71.5,151.9c-3.8,0-6.8-2.5-6.8-5.5c0-3.1,3-5.5,6.8-5.5c3.7,0,6.8,2.5,6.8,5.5
			C78.2,149.5,75.2,151.9,71.5,151.9z"/>
		<path class="st1" d="M98.3,150.8c0,0.5-0.4,0.8-0.8,0.8c-0.1,0-0.1,0-0.1,0l-10.9-0.3c-0.5,0-0.9-0.4-1-0.9l-0.8-29.5
			c0-0.5,0.4-0.8,0.8-0.8l12.5,0.2c0.5,0,0.9,0.4,0.9,0.9L98.3,150.8z M93.3,117.5c-3.8,0-6.8-3.2-6.8-7.3c0-4,3.1-7.2,6.8-7.2
			c3.8,0,6.9,3.2,6.9,7.2C100.2,114.3,97.1,117.5,93.3,117.5z"/>
		<path class="st1" d="M134.8,132c-0.3,1.1-1.2,1.6-2.3,1.5l-8-0.3c-1.3-0.1-1.4-0.8-1.4-1.9c0-2.3-1.2-4.6-3.4-4.6
			c-2.5,0-3.2,1.4-3.2,2.4c0,2.6,2.8,3.4,4.9,4c5.5,1.7,13.2,2.7,13.2,10.4c0,7.1-7.6,10-14.6,10c-10.6,0-16.9-4.6-16.9-10.8
			c0-1.4,0.2-2.3,1.8-2.4l7.3-0.1c1.6-0.1,1.9,0.9,1.9,2.1c0,1.6,2,2.8,4.8,2.8c2.5,0,3.1-1,3.1-1.3c0-2.5-6.3-3.2-8-3.8
			c-4.6-1.5-9.8-4.2-9.8-11.4c0-8.6,5.6-14.3,14.7-14.3c8.5,0,16.2,4.6,16.2,15.2C134.9,130.3,134.9,131.3,134.8,132z"/>
		<path class="st1" d="M172.1,151.4c-0.1,0.4-0.3,0.6-0.8,0.6c0,0,0,0-0.1,0l-11.2-0.9c-0.3,0-0.5-0.2-0.5-0.5v-0.1
			c0.2-2,0.6-3.8,0.6-8.5c0-10.9-1.3-14.8-4.9-14.8c-2.5,0-3.8,2-3.8,7l0.1,16c0,0.5-0.4,0.9-0.8,0.9c-0.1,0-0.1,0-0.1,0l-10.6-0.3
			c-0.5,0-0.9-0.4-1-0.9l-1.8-47.5c0-0.5,0.4-0.8,0.8-0.8l11.9,0.2c0.5,0,0.8,0.4,0.9,0.9l0.3,15.2c1.1-0.7,2.5-1.7,5.6-1.7
			c8.8,0,15.5,4.8,15.5,22.1C172.6,145.6,172.4,149.8,172.1,151.4z"/>
	</g>
	<g>
		<path class="st1" d="M38,18.3v58.1H15.8V18.3H0V0h53.9v18.3H38z"/>
		<path class="st1" d="M118,58.1v18.3H60.5V0H118v17.6H83.5v11.1h27.9v17H83.5v12.5L118,58.1L118,58.1z"/>
		<path class="st1" d="M127.3,76.4V0h29.6c12.8,0,22.5,3.8,28.8,11.4s9.6,16.4,9.6,26.4c0,11.4-3.4,20.7-10.3,27.9
			c-6.9,7.1-15.7,10.7-26.7,10.7H127.3z M150.8,58.8h6.1c3.9,0,7.2-1.9,9.8-5.7c2.7-3.8,4-8.9,4-15.4c0-5.6-1.2-10.4-3.6-14.4
			s-5.8-6-10.3-6h-6.1v41.5H150.8z"/>
	</g>
</g>
</svg>
